<svg width="148" height="37" viewBox="0 0 148 37" fill="none" xmlns="http://www.w3.org/2000/svg">
<path d="M1.64698 3.32428H9.89269C11.3471 3.32428 12.6584 3.58196 13.8266 4.09732C14.9947 4.60122 15.9224 5.37426 16.6095 6.41643C17.3081 7.44714 17.6574 8.74126 17.6574 10.2988C17.6574 11.8449 17.3081 13.1619 16.6095 14.2499C15.9224 15.3264 14.9947 16.151 13.8266 16.7236C12.6584 17.2847 11.3471 17.5653 9.89269 17.5653H6.78337V26H1.64698V3.32428ZM6.78337 13.5112H8.46687C9.16547 13.5112 9.78962 13.4081 10.3393 13.202C10.9005 12.9958 11.3471 12.6694 11.6793 12.2228C12.0114 11.7647 12.1774 11.1634 12.1774 10.419C12.1774 9.66318 12.0114 9.06765 11.6793 8.63246C11.3471 8.18582 10.9005 7.86515 10.3393 7.67046C9.78962 7.47577 9.16547 7.37843 8.46687 7.37843H6.78337V13.5112ZM30.4557 26V23.7152C30.3526 23.9443 30.0892 24.2764 29.6655 24.7116C29.2532 25.1468 28.7035 25.5419 28.0164 25.8969C27.3292 26.2405 26.5275 26.4123 25.6114 26.4123C24.2371 26.4123 23.0346 26.0802 22.0039 25.4159C20.9731 24.7402 20.1715 23.8412 19.5989 22.7189C19.0262 21.5851 18.7399 20.3311 18.7399 18.9568C18.7399 17.5825 19.0262 16.3342 19.5989 15.2119C20.1715 14.0781 20.9731 13.1733 22.0039 12.4976C23.0346 11.822 24.2371 11.4841 25.6114 11.4841C26.4932 11.4841 27.2662 11.6273 27.9305 11.9136C28.5947 12.1884 29.133 12.5205 29.5453 12.9099C29.9575 13.2879 30.2438 13.6372 30.4042 13.9578V11.8964H35.5921V26H30.4557ZM23.8591 18.9568C23.8591 19.5981 24.008 20.1765 24.3058 20.6918C24.6035 21.1957 24.9987 21.5908 25.4911 21.8771C25.995 22.1635 26.5505 22.3066 27.1574 22.3066C27.7873 22.3066 28.3428 22.1635 28.8238 21.8771C29.3048 21.5908 29.6827 21.1957 29.9575 20.6918C30.2438 20.1765 30.387 19.5981 30.387 18.9568C30.387 18.3155 30.2438 17.7428 29.9575 17.2389C29.6827 16.7236 29.3048 16.3227 28.8238 16.0364C28.3428 15.7387 27.7873 15.5898 27.1574 15.5898C26.5505 15.5898 25.995 15.7387 25.4911 16.0364C24.9987 16.3227 24.6035 16.7236 24.3058 17.2389C24.008 17.7428 23.8591 18.3155 23.8591 18.9568ZM44.1282 26H38.8888V2.36228H44.1282V26ZM58.438 26V23.7152C58.3349 23.9443 58.0715 24.2764 57.6478 24.7116C57.2355 25.1468 56.6858 25.5419 55.9986 25.8969C55.3115 26.2405 54.5098 26.4123 53.5936 26.4123C52.2194 26.4123 51.0169 26.0802 49.9861 25.4159C48.9554 24.7402 48.1538 23.8412 47.5811 22.7189C47.0085 21.5851 46.7222 20.3311 46.7222 18.9568C46.7222 17.5825 47.0085 16.3342 47.5811 15.2119C48.1538 14.0781 48.9554 13.1733 49.9861 12.4976C51.0169 11.822 52.2194 11.4841 53.5936 11.4841C54.4755 11.4841 55.2485 11.6273 55.9127 11.9136C56.577 12.1884 57.1152 12.5205 57.5275 12.9099C57.9398 13.2879 58.2261 13.6372 58.3865 13.9578V11.8964H63.5744V26H58.438ZM51.8414 18.9568C51.8414 19.5981 51.9903 20.1765 52.2881 20.6918C52.5858 21.1957 52.9809 21.5908 53.4734 21.8771C53.9773 22.1635 54.5327 22.3066 55.1397 22.3066C55.7696 22.3066 56.325 22.1635 56.806 21.8771C57.287 21.5908 57.665 21.1957 57.9398 20.6918C58.2261 20.1765 58.3693 19.5981 58.3693 18.9568C58.3693 18.3155 58.2261 17.7428 57.9398 17.2389C57.665 16.7236 57.287 16.3227 56.806 16.0364C56.325 15.7387 55.7696 15.5898 55.1397 15.5898C54.5327 15.5898 53.9773 15.7387 53.4734 16.0364C52.9809 16.3227 52.5858 16.7236 52.2881 17.2389C51.9903 17.7428 51.8414 18.3155 51.8414 18.9568ZM65.6858 11.8964H68.0908V6.10721H73.2615V11.8964H76.4224V16.191H73.2615V20.1249C73.2615 20.709 73.3474 21.1843 73.5192 21.5507C73.691 21.9058 74.0059 22.0833 74.464 22.0833C74.7732 22.0833 75.0366 22.0146 75.2542 21.8771C75.4718 21.7397 75.6035 21.6481 75.6493 21.6023L77.4359 25.3129C77.3557 25.3816 77.1038 25.5075 76.68 25.6908C76.2678 25.874 75.7409 26.0401 75.0996 26.189C74.4583 26.3378 73.7425 26.4123 72.9523 26.4123C71.5436 26.4123 70.3812 26.0172 69.465 25.227C68.5488 24.4253 68.0908 23.1942 68.0908 21.5336V16.191H65.6858V11.8964ZM79.5413 26V11.8964H84.7636V26H79.5413ZM82.2212 8.99321C81.3966 8.99321 80.698 8.7069 80.1254 8.13428C79.5528 7.55021 79.2665 6.85734 79.2665 6.05568C79.2665 5.25401 79.5528 4.56114 80.1254 3.97707C80.7095 3.38155 81.4081 3.08378 82.2212 3.08378C82.7594 3.08378 83.2519 3.22121 83.6985 3.49607C84.1452 3.75947 84.5059 4.1145 84.7808 4.56114C85.0557 5.00778 85.1931 5.50596 85.1931 6.05568C85.1931 6.85734 84.901 7.55021 84.317 8.13428C83.7329 8.7069 83.0343 8.99321 82.2212 8.99321ZM93.4979 33.1463H88.3271V11.8964H93.5494V13.9578C93.7097 13.6372 94.0132 13.2879 94.4599 12.9099C94.9179 12.5205 95.4963 12.1884 96.1949 11.9136C96.9049 11.6273 97.7066 11.4841 98.5999 11.4841C99.9742 11.4841 101.148 11.822 102.121 12.4976C103.106 13.1733 103.862 14.0781 104.389 15.2119C104.916 16.3342 105.179 17.5825 105.179 18.9568C105.179 20.3311 104.899 21.5851 104.338 22.7189C103.776 23.8412 102.986 24.7402 101.967 25.4159C100.959 26.0802 99.768 26.4123 98.3937 26.4123C97.4088 26.4123 96.5671 26.2405 95.8685 25.8969C95.1814 25.5419 94.6374 25.1525 94.2365 24.7288C93.8471 24.2936 93.6009 23.9557 93.4979 23.7152V33.1463ZM100.077 18.9568C100.077 18.3155 99.9341 17.7428 99.6478 17.2389C99.3615 16.7236 98.9721 16.3227 98.4796 16.0364C97.9986 15.7387 97.4546 15.5898 96.8477 15.5898C96.2178 15.5898 95.6509 15.7387 95.147 16.0364C94.6545 16.3227 94.2652 16.7236 93.9789 17.2389C93.6925 17.7428 93.5494 18.3155 93.5494 18.9568C93.5494 19.5981 93.6925 20.1765 93.9789 20.6918C94.2652 21.1957 94.6545 21.5908 95.147 21.8771C95.6509 22.1635 96.2178 22.3066 96.8477 22.3066C97.4546 22.3066 97.9986 22.1635 98.4796 21.8771C98.9721 21.5908 99.3615 21.1957 99.6478 20.6918C99.9341 20.1765 100.077 19.5981 100.077 18.9568Z" fill="white"/>
<path d="M111.326 26.4123C110.479 26.4123 109.746 26.1088 109.127 25.5018C108.52 24.8834 108.217 24.1504 108.217 23.303C108.217 22.4326 108.52 21.6939 109.127 21.0869C109.746 20.4685 110.479 20.1593 111.326 20.1593C112.196 20.1593 112.935 20.4685 113.542 21.0869C114.149 21.6939 114.452 22.4326 114.452 23.303C114.452 24.1504 114.149 24.8834 113.542 25.5018C112.935 26.1088 112.196 26.4123 111.326 26.4123Z" fill="#FF6666"/>
</svg>
