<svg width="148" height="37" viewBox="0 0 148 37" fill="none" xmlns="http://www.w3.org/2000/svg">
<path d="M2.10108 4.32428H10.3468C11.8012 4.32428 13.1125 4.58196 14.2807 5.09732C15.4488 5.60122 16.3765 6.37426 17.0636 7.41643C17.7622 8.44714 18.1115 9.74126 18.1115 11.2988C18.1115 12.8449 17.7622 14.1619 17.0636 15.2499C16.3765 16.3264 15.4488 17.151 14.2807 17.7236C13.1125 18.2847 11.8012 18.5653 10.3468 18.5653H7.23747V27H2.10108V4.32428ZM7.23747 14.5112H8.92097C9.61957 14.5112 10.2437 14.4081 10.7934 14.202C11.3546 13.9958 11.8012 13.6694 12.1334 13.2228C12.4655 12.7647 12.6315 12.1634 12.6315 11.419C12.6315 10.6632 12.4655 10.0677 12.1334 9.63246C11.8012 9.18582 11.3546 8.86515 10.7934 8.67046C10.2437 8.47577 9.61957 8.37843 8.92097 8.37843H7.23747V14.5112ZM30.9098 27V24.7152C30.8067 24.9443 30.5433 25.2764 30.1196 25.7116C29.7073 26.1468 29.1576 26.5419 28.4705 26.8969C27.7833 27.2405 26.9816 27.4123 26.0655 27.4123C24.6912 27.4123 23.4887 27.0802 22.458 26.4159C21.4272 25.7402 20.6256 24.8412 20.053 23.7189C19.4803 22.5851 19.194 21.3311 19.194 19.9568C19.194 18.5825 19.4803 17.3342 20.053 16.2119C20.6256 15.0781 21.4272 14.1733 22.458 13.4976C23.4887 12.822 24.6912 12.4841 26.0655 12.4841C26.9473 12.4841 27.7203 12.6273 28.3846 12.9136C29.0488 13.1884 29.5871 13.5205 29.9993 13.9099C30.4116 14.2879 30.6979 14.6372 30.8583 14.9578V12.8964H36.0462V27H30.9098ZM24.3132 19.9568C24.3132 20.5981 24.4621 21.1765 24.7599 21.6918C25.0576 22.1957 25.4528 22.5908 25.9452 22.8771C26.4491 23.1635 27.0045 23.3066 27.6115 23.3066C28.2414 23.3066 28.7968 23.1635 29.2778 22.8771C29.7588 22.5908 30.1368 22.1957 30.4116 21.6918C30.6979 21.1765 30.8411 20.5981 30.8411 19.9568C30.8411 19.3155 30.6979 18.7428 30.4116 18.2389C30.1368 17.7236 29.7588 17.3227 29.2778 17.0364C28.7968 16.7387 28.2414 16.5898 27.6115 16.5898C27.0045 16.5898 26.4491 16.7387 25.9452 17.0364C25.4528 17.3227 25.0576 17.7236 24.7599 18.2389C24.4621 18.7428 24.3132 19.3155 24.3132 19.9568ZM44.5823 27H39.3429V3.36228H44.5823V27ZM58.8921 27V24.7152C58.789 24.9443 58.5256 25.2764 58.1019 25.7116C57.6896 26.1468 57.1399 26.5419 56.4527 26.8969C55.7656 27.2405 54.9639 27.4123 54.0477 27.4123C52.6735 27.4123 51.471 27.0802 50.4402 26.4159C49.4095 25.7402 48.6079 24.8412 48.0352 23.7189C47.4626 22.5851 47.1763 21.3311 47.1763 19.9568C47.1763 18.5825 47.4626 17.3342 48.0352 16.2119C48.6079 15.0781 49.4095 14.1733 50.4402 13.4976C51.471 12.822 52.6735 12.4841 54.0477 12.4841C54.9296 12.4841 55.7026 12.6273 56.3668 12.9136C57.0311 13.1884 57.5693 13.5205 57.9816 13.9099C58.3939 14.2879 58.6802 14.6372 58.8406 14.9578V12.8964H64.0285V27H58.8921ZM52.2955 19.9568C52.2955 20.5981 52.4444 21.1765 52.7422 21.6918C53.0399 22.1957 53.435 22.5908 53.9275 22.8771C54.4314 23.1635 54.9868 23.3066 55.5938 23.3066C56.2237 23.3066 56.7791 23.1635 57.2601 22.8771C57.7411 22.5908 58.1191 22.1957 58.3939 21.6918C58.6802 21.1765 58.8234 20.5981 58.8234 19.9568C58.8234 19.3155 58.6802 18.7428 58.3939 18.2389C58.1191 17.7236 57.7411 17.3227 57.2601 17.0364C56.7791 16.7387 56.2237 16.5898 55.5938 16.5898C54.9868 16.5898 54.4314 16.7387 53.9275 17.0364C53.435 17.3227 53.0399 17.7236 52.7422 18.2389C52.4444 18.7428 52.2955 19.3155 52.2955 19.9568ZM66.1398 12.8964H68.5448V7.10721H73.7156V12.8964H76.8765V17.191H73.7156V21.1249C73.7156 21.709 73.8015 22.1843 73.9733 22.5507C74.1451 22.9058 74.46 23.0833 74.9181 23.0833C75.2273 23.0833 75.4907 23.0146 75.7083 22.8771C75.9259 22.7397 76.0576 22.6481 76.1034 22.6023L77.89 26.3129C77.8098 26.3816 77.5579 26.5075 77.1341 26.6908C76.7218 26.874 76.195 27.0401 75.5537 27.189C74.9124 27.3378 74.1966 27.4123 73.4064 27.4123C71.9977 27.4123 70.8353 27.0172 69.9191 26.227C69.0029 25.4253 68.5448 24.1942 68.5448 22.5336V17.191H66.1398V12.8964ZM79.9954 27V12.8964H85.2177V27H79.9954ZM82.6753 9.99321C81.8507 9.99321 81.1521 9.7069 80.5795 9.13428C80.0069 8.55021 79.7206 7.85734 79.7206 7.05568C79.7206 6.25401 80.0069 5.56114 80.5795 4.97707C81.1636 4.38155 81.8622 4.08378 82.6753 4.08378C83.2136 4.08378 83.706 4.22121 84.1526 4.49607C84.5993 4.75947 84.96 5.1145 85.2349 5.56114C85.5098 6.00778 85.6472 6.50596 85.6472 7.05568C85.6472 7.85734 85.3551 8.55021 84.7711 9.13428C84.187 9.7069 83.4884 9.99321 82.6753 9.99321ZM93.952 34.1463H88.7812V12.8964H94.0035V14.9578C94.1638 14.6372 94.4673 14.2879 94.914 13.9099C95.372 13.5205 95.9504 13.1884 96.649 12.9136C97.359 12.6273 98.1607 12.4841 99.054 12.4841C100.428 12.4841 101.602 12.822 102.576 13.4976C103.561 14.1733 104.316 15.0781 104.843 16.2119C105.37 17.3342 105.633 18.5825 105.633 19.9568C105.633 21.3311 105.353 22.5851 104.792 23.7189C104.23 24.8412 103.44 25.7402 102.421 26.4159C101.413 27.0802 100.222 27.4123 98.8478 27.4123C97.8629 27.4123 97.0212 27.2405 96.3226 26.8969C95.6355 26.5419 95.0915 26.1525 94.6906 25.7288C94.3012 25.2936 94.055 24.9557 93.952 24.7152V34.1463ZM100.531 19.9568C100.531 19.3155 100.388 18.7428 100.102 18.2389C99.8156 17.7236 99.4262 17.3227 98.9337 17.0364C98.4527 16.7387 97.9087 16.5898 97.3018 16.5898C96.6719 16.5898 96.105 16.7387 95.6011 17.0364C95.1086 17.3227 94.7193 17.7236 94.433 18.2389C94.1466 18.7428 94.0035 19.3155 94.0035 19.9568C94.0035 20.5981 94.1466 21.1765 94.433 21.6918C94.7193 22.1957 95.1086 22.5908 95.6011 22.8771C96.105 23.1635 96.6719 23.3066 97.3018 23.3066C97.9087 23.3066 98.4527 23.1635 98.9337 22.8771C99.4262 22.5908 99.8156 22.1957 100.102 21.6918C100.388 21.1765 100.531 20.5981 100.531 19.9568Z" fill="white"/>
<path d="M118.823 20.0255C118.823 21.5716 118.531 22.9 117.947 24.0109C117.375 25.1104 116.55 25.9521 115.473 26.5362C114.408 27.1203 113.149 27.4123 111.694 27.4123C110.641 27.4123 109.724 27.2749 108.946 27C108.167 26.7366 107.548 26.4503 107.09 26.1411C106.632 25.8204 106.352 25.5799 106.249 25.4196L108.173 20.9703C108.31 21.165 108.505 21.3769 108.757 21.6059C109.009 21.835 109.318 22.0354 109.684 22.2072C110.051 22.3675 110.463 22.4477 110.921 22.4477C111.448 22.4477 111.918 22.3389 112.33 22.1213C112.742 21.9037 113.068 21.5429 113.309 21.039C113.561 20.5351 113.687 19.8652 113.687 19.0291V4.32428H118.823V20.0255ZM125.872 27.4123C125.024 27.4123 124.291 27.1088 123.673 26.5018C123.066 25.8834 122.763 25.1504 122.763 24.303C122.763 23.4326 123.066 22.6939 123.673 22.0869C124.291 21.4685 125.024 21.1593 125.872 21.1593C126.742 21.1593 127.481 21.4685 128.088 22.0869C128.695 22.6939 128.998 23.4326 128.998 24.303C128.998 25.1504 128.695 25.8834 128.088 26.5018C127.481 27.1088 126.742 27.4123 125.872 27.4123Z" fill="#FF5C70"/>
</svg>
